<?xml version="1.0" encoding="utf-8"?>
<!-- Generator: Adobe Illustrator 21.0.2, SVG Export Plug-In . SVG Version: 6.00 Build 0)  -->
<svg version="1.1"
	 id="svg2" inkscape:export-filename="C:\Users\Driel\Documents\impactlocal\logo-impact-local.png" inkscape:export-xdpi="100" inkscape:export-ydpi="100" inkscape:version="0.48.4 r9939" sodipodi:docname="logo-impact-logovblue-google.svg" xmlns:cc="http://creativecommons.org/ns#" xmlns:dc="http://purl.org/dc/elements/1.1/" xmlns:inkscape="http://www.inkscape.org/namespaces/inkscape" xmlns:osb="http://www.openswatchbook.org/uri/2009/osb" xmlns:rdf="http://www.w3.org/1999/02/22-rdf-syntax-ns#" xmlns:sodipodi="http://sodipodi.sourceforge.net/DTD/sodipodi-0.dtd" xmlns:svg="http://www.w3.org/2000/svg"
	 xmlns="http://www.w3.org/2000/svg" xmlns:xlink="http://www.w3.org/1999/xlink" x="0px" y="0px" viewBox="51.3 -161.8 96.9 41"
	 enable-background="new 51.3 -161.8 96.9 41" xml:space="preserve">
<path fill="#FFFFFF" d="M144.2-157.8c-5.3-5.3-14-5.3-19.3,0c-3.7,3.7-4.8,8.9-3.4,13.6l5.8-11.9l-3.3,12.2l3.6-4.9l-1.4,5
	l10.6-11.4l-7.8,12.6l12.6-7.8l-11.4,10.6l5-1.4l-4.9,3.6l12.2-3.3l-11.9,5.8c4.7,1.4,9.9,0.3,13.6-3.4
	C149.5-143.8,149.5-152.5,144.2-157.8z"/>
<g>
	<path fill="#FFFFFF" d="M86.3-125.6l2.2,4.7H88l-0.7-1.6h-2l-0.7,1.6h-0.5l2.2-4.7H86.3z M86.2-124.6l-0.8,1.7H87L86.2-124.6z"/>
	<path fill="#FFFFFF" d="M93.3-124.8l-0.4,0.3c-0.3-0.3-0.6-0.5-0.9-0.6c-0.3-0.1-0.6-0.2-0.9-0.2c-0.4,0-0.7,0.1-1.1,0.3
		c-0.3,0.2-0.6,0.4-0.8,0.7c-0.2,0.3-0.3,0.6-0.3,1c0,0.4,0.1,0.7,0.3,1c0.2,0.3,0.5,0.6,0.8,0.8c0.3,0.2,0.7,0.3,1.1,0.3
		c0.5,0,0.9-0.1,1.2-0.4c0.3-0.3,0.5-0.6,0.6-1.1h-1.5v-0.5h2c0,0.7-0.2,1.3-0.6,1.7c-0.4,0.4-1,0.6-1.7,0.6c-0.9,0-1.6-0.3-2.1-0.9
		c-0.4-0.5-0.6-1-0.6-1.6c0-0.4,0.1-0.9,0.3-1.2c0.2-0.4,0.5-0.7,0.9-0.9c0.4-0.2,0.8-0.3,1.3-0.3c0.4,0,0.8,0.1,1.1,0.2
		C92.6-125.4,93-125.1,93.3-124.8z"/>
	<path fill="#FFFFFF" d="M94.5-125.6h2.7v0.5H95v1.5h2.2v0.5H95v1.9h2.2v0.5h-2.7V-125.6z"/>
	<path fill="#FFFFFF" d="M98.2-120.9v-4.7h0.1l3.1,3.6v-3.6h0.5v4.7h-0.1l-3.1-3.6v3.6H98.2z"/>
	<path fill="#FFFFFF" d="M107.2-124.7l-0.4,0.3c-0.2-0.3-0.5-0.5-0.7-0.6c-0.3-0.1-0.6-0.2-0.9-0.2c-0.4,0-0.7,0.1-1,0.3
		c-0.3,0.2-0.6,0.4-0.7,0.7c-0.2,0.3-0.3,0.6-0.3,1c0,0.6,0.2,1.1,0.6,1.4s0.9,0.6,1.5,0.6c0.7,0,1.2-0.3,1.7-0.8l0.4,0.3
		c-0.2,0.3-0.5,0.5-0.9,0.7c-0.4,0.2-0.7,0.2-1.2,0.2c-0.8,0-1.5-0.3-2-0.8c-0.4-0.5-0.6-1-0.6-1.7c0-0.7,0.2-1.3,0.7-1.7
		c0.5-0.5,1.1-0.7,1.8-0.7c0.4,0,0.8,0.1,1.2,0.3C106.7-125.3,107-125.1,107.2-124.7z"/>
	<path fill="#FFFFFF" d="M108-125.6h2.7v0.5h-2.2v1.5h2.2v0.5h-2.2v1.9h2.2v0.5H108V-125.6z"/>
	<path fill="#FFFFFF" d="M112.8-125.6h0.5l1,3.4l1.4-3.4h0.1l1.3,3.4l1-3.4h0.5l-1.4,4.7H117l-1.4-3.6l-1.4,3.6h-0.1L112.8-125.6z"
		/>
	<path fill="#FFFFFF" d="M119.1-125.6h2.7v0.5h-2.2v1.5h2.2v0.5h-2.2v1.9h2.2v0.5h-2.7V-125.6z"/>
	<path fill="#FFFFFF" d="M122.9-125.6h0.9c0.4,0,0.7,0,0.9,0.1c0.2,0.1,0.4,0.2,0.5,0.4c0.1,0.2,0.2,0.4,0.2,0.6
		c0,0.2-0.1,0.4-0.2,0.6c-0.1,0.2-0.3,0.3-0.4,0.4c0.2,0.1,0.4,0.2,0.6,0.3c0.1,0.1,0.2,0.2,0.3,0.4c0.1,0.2,0.1,0.3,0.1,0.5
		c0,0.4-0.1,0.7-0.4,1c-0.3,0.3-0.6,0.4-1.1,0.4h-1.3V-125.6z M123.3-125.2v1.5h0.3c0.3,0,0.6,0,0.7-0.1c0.2-0.1,0.3-0.2,0.4-0.3
		c0.1-0.1,0.1-0.3,0.1-0.4c0-0.2-0.1-0.4-0.2-0.5c-0.2-0.1-0.4-0.2-0.7-0.2H123.3z M123.3-123.2v1.8h0.6c0.3,0,0.6,0,0.8-0.1
		c0.2-0.1,0.3-0.2,0.4-0.3c0.1-0.1,0.1-0.3,0.1-0.5c0-0.2-0.1-0.4-0.2-0.5c-0.1-0.2-0.3-0.3-0.6-0.3c-0.2,0-0.4-0.1-0.8-0.1H123.3z"
		/>
</g>
<g>
	<path fill="#FFFFFF" d="M52.5-136.9h-1.2v8.4h3.6c0.4,0,0.7-0.3,0.7-0.7v-0.5h-3.1V-136.9z"/>
	<path fill="#FFFFFF" d="M58.5-128.5h0.5c0.4,0,0.7-0.3,0.7-0.7v-5.6h-1.1V-128.5z"/>
	<path fill="#FFFFFF" d="M59-137.2c-0.2,0-0.4,0.1-0.6,0.2c-0.2,0.2-0.2,0.4-0.2,0.6c0,0.2,0.1,0.4,0.2,0.6c0.2,0.2,0.3,0.2,0.6,0.2
		c0.2,0,0.4-0.1,0.6-0.2c0.2-0.2,0.2-0.3,0.2-0.6c0-0.2-0.1-0.4-0.2-0.6C59.5-137.2,59.3-137.2,59-137.2z"/>
	<path fill="#FFFFFF" d="M69.1-134.6c-0.3-0.2-0.7-0.3-1.2-0.3c-0.5,0-0.9,0.1-1.3,0.4c-0.3,0.2-0.6,0.5-0.8,0.8
		c-0.1-0.2-0.2-0.4-0.3-0.5c-0.2-0.2-0.4-0.4-0.7-0.5c-0.3-0.1-0.6-0.2-0.9-0.2c-0.5,0-0.9,0.1-1.3,0.4c-0.2,0.1-0.4,0.3-0.5,0.5
		v-0.7h-1.1v6.3h1.1v-2.7c0-0.7,0.1-1.2,0.2-1.6c0.1-0.3,0.3-0.6,0.6-0.8c0.3-0.2,0.6-0.3,0.9-0.3c0.3,0,0.5,0.1,0.7,0.2
		c0.2,0.1,0.3,0.3,0.4,0.5c0.1,0.2,0.1,0.5,0.1,1.4v3.2h0.5c0.4,0,0.6-0.3,0.6-0.6v-1.9c0-0.8,0.1-1.4,0.2-1.8
		c0.1-0.3,0.3-0.6,0.6-0.8c0.3-0.2,0.6-0.3,0.9-0.3c0.3,0,0.5,0.1,0.7,0.2c0.2,0.1,0.3,0.3,0.4,0.5c0.1,0.2,0.1,0.6,0.1,1.2v3.4h0.5
		c0.4,0,0.7-0.3,0.7-0.7v-2.8c0-0.8-0.1-1.3-0.2-1.7C69.7-134.1,69.4-134.4,69.1-134.6z"/>
	<path fill="#FFFFFF" d="M74.6-134.9c-0.5,0-1,0.1-1.4,0.3c-0.3,0.1-0.5,0.3-0.8,0.6v-0.8h-1.1v8.5h0.5c0.4,0,0.6-0.3,0.6-0.6v-2.3
		c0.3,0.2,0.5,0.4,0.8,0.6c0.4,0.2,0.9,0.3,1.4,0.3c0.9,0,1.7-0.3,2.3-1c0.6-0.6,0.9-1.4,0.9-2.4c0-0.8-0.3-1.7-0.9-2.3
		C76.3-134.6,75.5-134.9,74.6-134.9z M75.6-129.7c-0.3,0.2-0.7,0.3-1.1,0.3c-0.4,0-0.8-0.1-1.1-0.3c-0.3-0.2-0.6-0.5-0.8-0.8
		c-0.2-0.3-0.3-0.7-0.3-1.1c0-0.6,0.2-1.2,0.6-1.6c0.4-0.4,0.9-0.6,1.5-0.6c0.4,0,0.8,0.1,1.1,0.3c0.3,0.2,0.6,0.5,0.8,0.8
		c0.2,0.3,0.3,0.7,0.3,1.1c0,0.4-0.1,0.8-0.3,1.1C76.2-130.2,76-129.9,75.6-129.7z"/>
	<path fill="#FFFFFF" d="M83.8-134c-0.2-0.2-0.5-0.4-0.8-0.6c-0.4-0.2-0.9-0.3-1.4-0.3c-0.9,0-1.7,0.3-2.3,1
		c-0.6,0.6-0.9,1.4-0.9,2.3c0,0.9,0.3,1.7,0.9,2.4c0.6,0.6,1.4,1,2.3,1c0.5,0,1-0.1,1.4-0.3c0.3-0.1,0.6-0.3,0.8-0.6v0.7h0.4
		c0.4,0,0.7-0.3,0.7-0.7v-5.6h-1.1V-134z M79.8-130.5c-0.2-0.4-0.3-0.7-0.3-1.1c0-0.4,0.1-0.8,0.3-1.1c0.2-0.3,0.5-0.6,0.8-0.8
		c0.3-0.2,0.7-0.3,1.1-0.3c0.6,0,1.1,0.2,1.5,0.6c0.4,0.4,0.6,1,0.6,1.6c0,0.4-0.1,0.8-0.3,1.1c-0.2,0.3-0.5,0.6-0.8,0.8
		c-0.3,0.2-0.7,0.3-1.1,0.3c-0.4,0-0.7-0.1-1.1-0.3C80.3-129.9,80-130.2,79.8-130.5z"/>
	<path fill="#FFFFFF" d="M91.2-130.4c-0.5,0.7-1.2,1-2,1c-0.4,0-0.8-0.1-1.2-0.3c-0.4-0.2-0.6-0.5-0.8-0.8c-0.2-0.4-0.3-0.7-0.3-1.1
		c0-0.6,0.2-1.1,0.7-1.6c0.4-0.4,1-0.6,1.7-0.6c0.9,0,1.5,0.3,2,1l0.1,0.1l0.9-0.6l-0.1-0.2c-0.2-0.3-0.4-0.6-0.7-0.8
		c-0.3-0.2-0.6-0.4-1-0.5c-0.4-0.1-0.8-0.2-1.2-0.2c-0.7,0-1.3,0.1-1.8,0.4c-0.5,0.3-1,0.7-1.3,1.2c-0.3,0.5-0.5,1.1-0.5,1.7
		c0,0.9,0.3,1.7,1,2.3c0.6,0.6,1.5,0.9,2.5,0.9c0.6,0,1.2-0.1,1.7-0.4c0.5-0.2,0.9-0.6,1.2-1.1l0.1-0.1l-0.9-0.6L91.2-130.4z"/>
	<path fill="#FFFFFF" d="M95.1-137h-0.5c-0.4,0-0.6,0.3-0.6,0.6v1.6h-1v1h1v5.3h0.5c0.4,0,0.6-0.3,0.6-0.6v-4.6h0.6
		c0.4,0,0.6-0.3,0.6-0.6v-0.4h-1.2V-137z"/>
	<path fill="#FFFFFF" d="M100-128.5h0.5c0.4,0,0.7-0.3,0.7-0.7v-7.9h-0.4c-0.4,0-0.7,0.3-0.7,0.7V-128.5z"/>
	<path fill="#FFFFFF" d="M105.4-134.9c-1,0-1.8,0.4-2.4,1.1c-0.6,0.6-0.9,1.4-0.9,2.3c0,0.9,0.3,1.6,0.9,2.3c0.6,0.7,1.4,1,2.4,1
		c1,0,1.7-0.3,2.4-1c0.6-0.7,0.9-1.4,0.9-2.3c0-0.9-0.3-1.6-0.9-2.3C107.2-134.6,106.4-134.9,105.4-134.9z M106.5-129.7
		c-0.3,0.2-0.7,0.3-1.1,0.3c-0.4,0-0.8-0.1-1.1-0.3c-0.3-0.2-0.6-0.5-0.8-0.8c-0.2-0.3-0.3-0.7-0.3-1.1c0-0.6,0.2-1.1,0.6-1.6
		c0.4-0.4,0.9-0.6,1.5-0.6c0.6,0,1.1,0.2,1.5,0.6c0.4,0.4,0.6,1,0.6,1.6c0,0.4-0.1,0.8-0.3,1.1C107-130.2,106.8-129.9,106.5-129.7z"
		/>
	<path fill="#FFFFFF" d="M114.9-130.4c-0.5,0.7-1.2,1-2,1c-0.4,0-0.8-0.1-1.2-0.3c-0.4-0.2-0.6-0.5-0.8-0.8
		c-0.2-0.4-0.3-0.7-0.3-1.1c0-0.6,0.2-1.1,0.7-1.6c0.4-0.4,1-0.6,1.7-0.6c0.9,0,1.5,0.3,2,1l0.1,0.1l0.9-0.6l-0.1-0.2
		c-0.2-0.3-0.4-0.6-0.7-0.8c-0.3-0.2-0.6-0.4-1-0.5c-0.4-0.1-0.8-0.2-1.2-0.2c-0.7,0-1.3,0.1-1.8,0.4c-0.5,0.3-1,0.7-1.3,1.2
		c-0.3,0.5-0.5,1.1-0.5,1.7c0,0.9,0.3,1.7,1,2.3c0.6,0.6,1.5,0.9,2.5,0.9c0.6,0,1.2-0.1,1.7-0.4c0.5-0.2,0.9-0.6,1.2-1.1l0.1-0.1
		l-0.9-0.6L114.9-130.4z"/>
	<path fill="#FFFFFF" d="M121.9-134c-0.2-0.2-0.5-0.4-0.8-0.6c-0.4-0.2-0.9-0.3-1.4-0.3c-0.9,0-1.7,0.3-2.3,1
		c-0.6,0.6-0.9,1.4-0.9,2.3c0,0.9,0.3,1.7,0.9,2.4c0.6,0.6,1.4,1,2.3,1c0.5,0,1-0.1,1.4-0.3c0.3-0.1,0.6-0.3,0.8-0.6v0.7h0.5
		c0.4,0,0.6-0.3,0.6-0.6v-5.6h-1.1V-134z M117.9-130.5c-0.2-0.4-0.3-0.7-0.3-1.1c0-0.4,0.1-0.8,0.3-1.1c0.2-0.3,0.5-0.6,0.8-0.8
		c0.3-0.2,0.7-0.3,1.1-0.3c0.6,0,1.1,0.2,1.5,0.6c0.4,0.4,0.6,1,0.6,1.6c0,0.4-0.1,0.8-0.3,1.1c-0.2,0.3-0.5,0.6-0.8,0.8
		c-0.3,0.2-0.7,0.3-1.1,0.3c-0.4,0-0.7-0.1-1.1-0.3C118.4-129.9,118.1-130.2,117.9-130.5z"/>
	<path fill="#FFFFFF" d="M124.5-136.4v7.9h0.5c0.4,0,0.6-0.3,0.6-0.6v-7.9h-0.5C124.8-137.1,124.5-136.8,124.5-136.4z"/>
	<g>
		<path fill="#FFFFFF" d="M55-137.2h1.2v2.1c0,0.1-0.2,0.2-0.3,0.1l-0.9-0.6V-137.2z"/>
	</g>
</g>
</svg>
